HIERARCHY
ROOT Hips
{
	OFFSET 0.000000 0.000000 0.000000
	CHANNELS 6 Xposition Yposition Zposition Xrotation Yrotation Zrotation
	JOINT LeftUpLeg_virtual
	{
		OFFSET 0.000000 0.000000 0.000000
		CHANNELS 3 Xrotation Yrotation Zrotation
		JOINT LeftUpLeg
		{
			OFFSET 13.026900 -6.336304 -1.092800
			CHANNELS 3 Xrotation Yrotation Zrotation
			JOINT LeftLeg
			{
				OFFSET 0.524474 -46.096886 9.782700
				CHANNELS 3 Xrotation Yrotation Zrotation
				JOINT LeftFoot
				{
					OFFSET -0.524474 -53.427422 -12.948200
					CHANNELS 3 Xrotation Yrotation Zrotation
					JOINT LeftToeBase
					{
						OFFSET 0.192200 -14.009700 16.364100
						CHANNELS 3 Xrotation Yrotation Zrotation
						JOINT LeftToe_End
						{
							OFFSET -1.784700 -0.561700 9.474800
							CHANNELS 3 Xrotation Yrotation Zrotation
							End Site
							{
								OFFSET 0 0 0
							}
						}
					}
				}
			}
		}
	}
	JOINT RightUpLeg_virtual
	{
		OFFSET 0.000000 0.000000 0.000000
		CHANNELS 3 Xrotation Yrotation Zrotation
		JOINT RightUpLeg
		{
			OFFSET -12.883000 -6.336304 -1.092800
			CHANNELS 3 Xrotation Yrotation Zrotation
			JOINT RightLeg
			{
				OFFSET -0.524587 -46.096825 9.782800
				CHANNELS 3 Xrotation Yrotation Zrotation
				JOINT RightFoot
				{
					OFFSET 0.524587 -53.427383 -12.948300
					CHANNELS 3 Xrotation Yrotation Zrotation
					JOINT RightToeBase
					{
						OFFSET -0.192200 -14.009700 16.364100
						CHANNELS 3 Xrotation Yrotation Zrotation
						JOINT RightToe_End
						{
							OFFSET 1.784700 -0.561700 9.474800
							CHANNELS 3 Xrotation Yrotation Zrotation
							End Site
							{
								OFFSET 0 0 0
							}
						}
					}
				}
			}
		}
	}
	JOINT Spine_virtual
	{
		OFFSET 0.000000 0.000000 0.000000
		CHANNELS 3 Xrotation Yrotation Zrotation
		JOINT Spine
		{
			OFFSET 0.072000 7.257294 -0.789700
			CHANNELS 3 Xrotation Yrotation Zrotation
			JOINT Spine1
			{
				OFFSET 0.000000 12.508769 -0.658067
				CHANNELS 3 Xrotation Yrotation Zrotation
				JOINT Spine1_split
				{
					OFFSET 0.000000 12.508769 -0.658067
					CHANNELS 3 Xrotation Yrotation Zrotation
					JOINT Spine2
					{
						OFFSET 0.000000 12.508769 -0.658067
						CHANNELS 3 Xrotation Yrotation Zrotation
						JOINT Neck_virtual
						{
							OFFSET 0.000000 0.000000 0.000000
							CHANNELS 3 Xrotation Yrotation Zrotation
							JOINT Neck
							{
								OFFSET 0.000000 14.033295 7.520400
								CHANNELS 3 Xrotation Yrotation Zrotation
								JOINT Head
								{
									OFFSET 0.000000 8.198502 5.703100
									CHANNELS 3 Xrotation Yrotation Zrotation
									JOINT HeadTop_End
									{
										OFFSET 0.000000 17.760803 13.332701
										CHANNELS 3 Xrotation Yrotation Zrotation
										End Site
										{
											OFFSET 0 0 0
										}
									}
								}
							}
						}
						JOINT LeftShoulder_virtual
						{
							OFFSET 0.000000 0.000000 0.000000
							CHANNELS 3 Xrotation Yrotation Zrotation
							JOINT LeftShoulder
							{
								OFFSET 6.292450 5.785301 -0.669000
								CHANNELS 3 Xrotation Yrotation Zrotation
								JOINT LeftShoulder_split
								{
									OFFSET 6.292450 5.785301 -0.669000
									CHANNELS 3 Xrotation Yrotation Zrotation
									JOINT LeftArm
									{
										OFFSET 13.907140 -6.093903 1.965100
										CHANNELS 3 Xrotation Yrotation Zrotation
										JOINT LeftForeArm
										{
											OFFSET 34.140198 0.000000 0.000000
											CHANNELS 3 Xrotation Yrotation Zrotation
											JOINT LeftHand
											{
												OFFSET 40.960209 0.000000 0.000000
												CHANNELS 3 Xrotation Yrotation Zrotation
												End Site
												{
													OFFSET 0 0 0
												}
											}
										}
									}
								}
							}
						}
						JOINT RightShoulder_virtual
						{
							OFFSET 0.000000 0.000000 0.000000
							CHANNELS 3 Xrotation Yrotation Zrotation
							JOINT RightShoulder
							{
								OFFSET -6.292450 5.785301 -0.669000
								CHANNELS 3 Xrotation Yrotation Zrotation
								JOINT RightShoulder_split
								{
									OFFSET -6.292450 5.785301 -0.669000
									CHANNELS 3 Xrotation Yrotation Zrotation
									JOINT RightArm
									{
										OFFSET -13.907140 -6.093903 1.965100
										CHANNELS 3 Xrotation Yrotation Zrotation
										JOINT RightForeArm
										{
											OFFSET -34.140198 0.000000 0.000000
											CHANNELS 3 Xrotation Yrotation Zrotation
											JOINT RightHand
											{
												OFFSET -40.960209 0.000000 0.000000
												CHANNELS 3 Xrotation Yrotation Zrotation
												End Site
												{
													OFFSET 0 0 0
												}
											}
										}
									}
								}
							}
						}
					}
				}
			}
		}
	}
}
MOTION
Frames: 6
Frame Time: 0.03333333
5.580152 115.387260 -0.773045 0.000000 0.000000 0.000000 -2.493064 2.596471 -4.545957 -19.437231 8.967007 17.070055 25.781905 10.722276 1.005436 -5.020662 3.907287 -10.637064 1.704744 -0.044698 -1.272182 0.000000 0.000000 0.000000 -1.905934 3.114869 -5.120384 -2.946274 -2.847915 7.781652 -1.653474 -6.835085 -0.537356 3.386576 0.524801 -9.028554 -3.361109 -0.012814 -0.068644 0.000000 0.000000 0.000000 -2.853947 0.576072 -4.925816 1.995182 -1.011297 3.384956 1.341416 0.009178 5.760157 0.752966 1.695253 -0.299142 0.000000 0.000000 0.000000 -0.215603 0.430566 5.585618 0.098917 0.847970 -2.458575 2.099682 2.753976 -8.101986 0.000000 0.000000 0.000000 0.089576 0.526736 5.507354 4.358381 -10.958799 -4.621245 -1.062652 0.806375 -0.692738 4.458880 3.816645 -85.482235 -1.941094 -13.080490 0.640821 0.000000 0.000000 0.000000 0.611894 0.714827 5.535749 5.210938 2.815261 8.078443 -1.719126 2.655162 -1.840212 0.859655 4.543941 66.483019 1.384582 20.003799 1.686732 0.000000 0.000000 0.000000 
5.404291 115.309296 -0.822968 0.000000 0.000000 0.000000 -2.475846 2.768507 -4.577937 -19.499271 8.875340 17.153448 25.838244 10.679356 1.041110 -4.959437 3.883840 -10.783613 1.647279 -0.035008 -1.309679 0.000000 0.000000 0.000000 -1.886802 3.328440 -5.139709 -2.988597 -2.776284 7.881311 -1.793374 -6.911481 -0.558932 3.435757 0.493457 -8.981970 -3.379323 0.012756 -0.060344 0.000000 0.000000 0.000000 -2.790468 0.823212 -4.993961 1.964537 -1.066356 3.402604 1.393319 0.011435 5.732681 0.777898 1.633079 -0.333653 0.000000 0.000000 0.000000 -0.208395 0.420725 5.559290 -0.066536 0.830058 -2.214610 1.785919 2.619607 -8.038553 0.000000 0.000000 0.000000 0.105107 0.506956 5.499364 4.352899 -10.934346 -4.685091 -1.019634 0.703526 -0.387764 4.366595 3.872645 -85.197362 -2.046931 -13.143250 0.496658 0.000000 0.000000 0.000000 0.586711 0.695625 5.513345 5.142227 2.966760 8.102628 -1.560199 2.778540 -1.888083 0.938899 4.539809 66.731344 1.280657 20.175240 1.725485 0.000000 0.000000 0.000000 
5.136725 115.200302 -0.915596 0.000000 0.000000 0.000000 -2.399454 2.986954 -4.742884 -19.826822 8.712899 17.487205 26.194026 10.588206 1.063548 -4.883827 3.819746 -10.949351 1.596534 -0.027504 -1.324640 0.000000 0.000000 0.000000 -1.795121 3.599271 -5.275638 -2.954223 -2.575755 8.111966 -2.157404 -6.914778 -0.578555 3.679022 0.527864 -8.801606 -3.263659 0.038477 -0.048146 0.000000 0.000000 0.000000 -2.674197 1.095883 -5.158955 1.926900 -1.159956 3.446509 1.505178 -0.000022 5.690853 0.818764 1.563171 -0.358393 0.000000 0.000000 0.000000 -0.138305 0.396017 5.520551 -0.424255 0.810287 -1.918085 0.903323 2.361241 -7.697638 0.000000 0.000000 0.000000 0.151067 0.474959 5.473090 4.343931 -10.942946 -4.713517 -0.999004 0.595017 -0.170754 4.056273 3.727320 -84.555993 -2.128701 -13.151008 0.355483 0.000000 0.000000 0.000000 0.597391 0.652584 5.478812 5.013081 3.084967 8.297893 -1.483302 2.839975 -1.958958 1.148635 5.110400 66.862334 1.236586 20.061288 1.736152 0.000000 0.000000 0.000000 
4.828134 115.077560 -1.002689 0.000000 0.000000 0.000000 -2.274553 3.216967 -5.013060 -20.345255 8.482981 17.991792 26.724614 10.469047 1.091156 -4.866809 3.740993 -11.126866 1.568665 -0.023528 -1.321000 0.000000 0.000000 0.000000 -1.631212 3.891808 -5.517991 -2.845549 -2.246394 8.445137 -2.654306 -6.881475 -0.594282 4.070445 0.567679 -8.584342 -3.126150 0.061837 -0.024943 0.000000 0.000000 0.000000 -2.503918 1.369739 -5.387468 1.865371 -1.273589 3.501112 1.675377 -0.014934 5.634395 0.835613 1.534354 -0.384960 0.000000 0.000000 0.000000 -0.005545 0.358505 5.462883 -0.921405 0.783993 -1.596735 -0.462741 2.021307 -7.137029 0.000000 0.000000 0.000000 0.231848 0.436333 5.424514 4.329598 -10.969653 -4.721403 -1.020688 0.401852 -0.068847 3.558961 3.352744 -83.658711 -2.158657 -13.125593 0.227916 0.000000 0.000000 0.000000 0.649735 0.597512 5.429991 4.822659 3.167153 8.666123 -1.457127 2.910102 -2.046271 1.470407 6.174851 66.827390 1.261016 19.643023 1.724785 0.000000 0.000000 0.000000 
4.505115 114.954308 -1.064507 0.000000 0.000000 0.000000 -2.088196 3.471611 -5.348206 -20.979228 8.190811 18.580871 27.313713 10.320289 1.137960 -4.957147 3.652129 -11.355224 1.523020 -0.026470 -1.290111 0.000000 0.000000 0.000000 -1.415756 4.170530 -5.829502 -2.677694 -1.819216 8.831721 -3.234148 -6.846269 -0.609295 4.537158 0.559957 -8.412933 -3.049086 0.080798 0.018301 0.000000 0.000000 0.000000 -2.300009 1.633295 -5.639847 1.765954 -1.397279 3.547231 1.891600 -0.025629 5.557316 0.850155 1.518209 -0.394928 0.000000 0.000000 0.000000 0.173180 0.315324 5.375896 -1.466383 0.755887 -1.281127 -2.168167 1.651004 -6.443294 0.000000 0.000000 0.000000 0.348565 0.398463 5.348287 4.303817 -10.987488 -4.739508 -1.074038 0.076989 -0.052845 2.944760 2.752091 -82.596952 -2.103033 -13.123841 0.132053 0.000000 0.000000 0.000000 0.747375 0.538503 5.361173 4.582774 3.204014 9.171377 -1.482862 2.927617 -2.110861 1.914446 7.638350 66.577993 1.354763 18.916231 1.690742 0.000000 0.000000 0.000000 
4.182781 114.859116 -1.083019 0.000000 0.000000 0.000000 -1.831912 3.765584 -5.700271 -21.662718 7.856405 19.169599 27.934033 10.146623 1.203915 -5.151552 3.565880 -11.656344 1.438285 -0.038457 -1.234246 0.000000 0.000000 0.000000 -1.153373 4.407606 -6.163571 -2.480479 -1.307182 9.228177 -3.859547 -6.789632 -0.627622 4.999385 0.503575 -8.339784 -3.079534 0.094619 0.075091 0.000000 0.000000 0.000000 -2.068285 1.846224 -5.890144 1.612013 -1.519648 3.572434 2.138779 -0.026872 5.453998 0.882727 1.498286 -0.389909 0.000000 0.000000 0.000000 0.376218 0.270083 5.255542 -1.985859 0.739308 -0.994518 -4.047855 1.276553 -5.675246 0.000000 0.000000 0.000000 0.500398 0.362207 5.241164 4.259699 -10.970168 -4.793658 -1.091036 -0.341806 -0.062243 2.307459 2.017910 -81.457560 -1.957493 -13.210649 0.067132 0.000000 0.000000 0.000000 0.890659 0.483695 5.269507 4.308367 3.193477 9.774517 -1.587370 2.876774 -2.152310 2.465688 9.330327 66.076015 1.505181 17.916076 1.641382 0.000000 0.000000 0.000000 
